<?xml version="1.0" standalone="no"?>
<!DOCTYPE svg PUBLIC "-//W3C//DTD SVG 20010904//EN"
 "http://www.w3.org/TR/2001/REC-SVG-20010904/DTD/svg10.dtd">
<svg version="1.0" xmlns="http://www.w3.org/2000/svg"
 width="2488.000000pt" height="2484.000000pt" viewBox="0 0 2488.000000 2484.000000"
 preserveAspectRatio="xMidYMid meet">

<g transform="translate(0.000000,2484.000000) scale(0.100000,-0.100000)"
fill="#000000" stroke="none">
<path d="M6990 18432 c-508 -540 -843 -1309 -945 -2172 -23 -189 -31 -588 -16
-790 47 -640 224 -1243 512 -1745 51 -88 3130 -4818 3154 -4843 9 -10 250 270
1180 1373 1120 1330 1169 1386 1185 1368 10 -10 451 -619 981 -1353 530 -735
967 -1338 971 -1340 4 -3 715 933 1579 2080 864 1147 1606 2126 1648 2175 176
205 289 364 416 585 340 589 550 1304 605 2055 13 180 13 590 0 770 -46 621
-198 1222 -444 1749 -27 57 -50 96 -55 90 -4 -5 -1218 -1444 -2696 -3199
-1478 -1754 -2691 -3191 -2695 -3193 -4 -2 -67 79 -139 178 l-131 181 152 182
c1361 1625 4924 5890 4926 5897 2 7 -546 10 -1507 10 l-1510 0 -78 -25 c-116
-37 -217 -98 -299 -179 l-71 -71 -729 -1622 c-401 -892 -731 -1620 -733 -1618
-2 2 -234 728 -516 1612 l-512 1608 -74 76 c-84 87 -182 149 -297 188 l-77 27
-1539 3 c-1287 2 -1537 1 -1530 -11 4 -7 991 -1373 2191 -3035 1201 -1663
2186 -3028 2188 -3035 4 -11 -286 -369 -304 -375 -3 -2 -1062 1460 -2353 3247
l-2347 3250 -91 -98z"/>
<path d="M6888 8271 c-29 -26 -33 -35 -31 -78 2 -54 207 -893 229 -935 23 -44
62 -68 111 -68 59 0 99 22 122 68 11 21 56 172 101 337 102 375 111 407 115
403 2 -2 44 -155 94 -341 50 -186 99 -356 107 -377 24 -59 66 -90 120 -90 63
0 102 23 124 74 27 59 230 890 230 938 0 107 -145 136 -194 40 -7 -15 -46
-174 -86 -354 -41 -181 -76 -328 -79 -328 -3 0 -42 132 -85 293 -94 349 -108
389 -147 422 -62 51 -178 25 -213 -49 -9 -19 -55 -178 -103 -355 -47 -176 -88
-319 -90 -318 -1 2 -37 153 -78 336 -42 183 -82 346 -90 362 -31 58 -104 67
-157 20z"/>
<path d="M8696 8284 c-177 -43 -308 -181 -352 -371 -20 -88 -20 -259 1 -338
53 -203 185 -335 373 -374 68 -14 206 -14 274 0 242 50 388 255 388 544 0 287
-133 478 -375 540 -73 19 -229 18 -309 -1z m291 -190 c29 -14 64 -39 79 -57
126 -148 118 -462 -14 -594 -54 -54 -114 -77 -202 -77 -66 -1 -82 3 -130 30
-103 58 -158 162 -168 320 -12 200 74 361 215 400 66 19 156 10 220 -22z"/>
<path d="M9598 8280 c-48 -37 -49 -45 -46 -543 l3 -467 28 -27 27 -28 313 -3
c171 -2 322 0 335 3 39 10 62 41 62 84 0 32 -6 44 -31 65 l-31 26 -244 0 -244
0 0 421 0 421 -34 34 c-27 27 -42 34 -74 34 -24 0 -49 -8 -64 -20z"/>
<path d="M10517 8289 c-46 -27 -47 -39 -47 -543 0 -347 3 -482 12 -501 23 -51
109 -72 157 -39 40 29 51 73 51 211 l0 128 85 85 c52 52 88 81 94 75 11 -13
274 -423 290 -453 27 -52 112 -77 176 -52 34 13 57 67 46 107 -15 51 -37 87
-203 324 l-161 231 24 22 c13 13 74 70 134 127 134 127 155 153 155 197 0 53
-45 92 -106 92 -48 0 -49 -1 -154 -107 -58 -60 -168 -173 -243 -252 l-137
-144 0 202 c0 217 -7 253 -51 285 -26 18 -94 21 -122 5z"/>
<path d="M12038 8271 c-54 -48 -50 -65 126 -546 87 -236 167 -445 179 -464 28
-47 72 -71 131 -71 66 0 107 27 140 93 38 75 327 865 333 909 5 33 1 42 -30
73 -28 28 -43 35 -74 35 -80 0 -78 3 -249 -512 -60 -181 -111 -328 -114 -328
-3 0 -61 165 -129 368 -131 388 -141 414 -174 450 -31 34 -97 31 -139 -7z"/>
<path d="M13157 8280 c-15 -12 -31 -38 -37 -58 -13 -50 -13 -904 0 -954 14
-50 52 -78 106 -78 54 0 92 30 104 85 5 22 10 234 10 470 0 237 -5 448 -10
470 -5 22 -21 50 -35 63 -34 29 -102 30 -138 2z"/>
<path d="M13815 8286 c-78 -20 -119 -41 -165 -83 -119 -106 -121 -300 -4 -402
53 -47 137 -83 284 -121 179 -46 222 -71 241 -143 9 -33 7 -45 -13 -85 -33
-67 -95 -97 -198 -97 -64 0 -82 4 -122 28 -38 22 -53 40 -83 99 -55 111 -92
140 -148 119 -74 -29 -88 -106 -37 -209 68 -134 199 -202 395 -202 147 0 252
36 333 114 54 51 77 95 91 172 18 100 -12 206 -76 266 -46 44 -145 86 -290
125 -174 45 -229 72 -249 119 -17 40 -11 68 20 102 43 48 119 69 200 57 66
-10 105 -41 152 -119 47 -78 56 -86 105 -86 41 0 85 36 95 77 22 87 -67 205
-194 254 -70 28 -258 36 -337 15z"/>
<path d="M14627 8280 c-15 -12 -31 -38 -37 -58 -13 -50 -13 -904 0 -954 14
-50 52 -78 106 -78 54 0 92 30 104 85 5 22 10 234 10 470 0 237 -5 448 -10
470 -5 22 -21 50 -35 63 -34 29 -102 30 -138 2z"/>
<path d="M15366 8284 c-177 -43 -308 -181 -352 -371 -20 -88 -20 -259 1 -338
53 -203 185 -335 373 -374 68 -14 206 -14 274 0 242 50 388 255 388 544 0 287
-133 478 -375 540 -73 19 -229 18 -309 -1z m291 -190 c29 -14 64 -39 79 -57
126 -148 118 -462 -14 -594 -54 -54 -114 -77 -202 -77 -66 -1 -82 3 -130 30
-103 58 -158 162 -168 320 -12 200 74 361 215 400 66 19 156 10 220 -22z"/>
<path d="M16282 8266 l-37 -34 -3 -478 c-3 -502 -1 -519 42 -549 27 -20 86
-19 114 1 45 31 47 43 52 390 l5 332 194 -302 c283 -437 282 -436 373 -436 50
0 82 19 103 60 23 44 22 957 0 1000 -31 59 -107 69 -156 21 l-29 -29 0 -349 0
-348 -240 360 c-145 218 -250 367 -267 377 -15 10 -47 18 -71 18 -34 0 -49 -6
-80 -34z"/>
<path d="M11527 7679 c-11 -6 -25 -26 -33 -45 -12 -29 -12 -39 0 -68 8 -19 23
-39 34 -45 13 -7 87 -11 186 -11 160 0 166 1 193 24 22 19 28 32 28 66 0 34
-6 47 -28 66 -27 23 -33 24 -195 24 -100 0 -174 -5 -185 -11z"/>
</g>
</svg>
